#!OML:ASF H:\Male1\Project 1\Capture day 1\Session 1\Male1.ASF
:FULLY-SPECIFIED
:DEGREES
436
root -8.37906 13.5138 5.15555 182.286 6.69676 -178.576
lowerback 27.4144 0.115331 10.2245
upperback 8.12964 6.21112 7.66475
thorax -5.98171 4.00309 0.604219
lowerneck -3.18885 9.68097 18.142
upperneck -9.10369 10.8523 -27.3846
head 0.814937 4.86585 -11.3884
rclavicle 1.74931e-014 2.22639e-014
rhumerus 10.9071 44.0617 -68.1514
rradius 63.051
rwrist -25.4102
rhand -20.3746 5.4479
rfingers 7.12502
rthumb 5.97816 -24.4478
lclavicle 1.74931e-014 2.22639e-014
lhumerus -58.6951 -4.92907 88.3481
lradius 85.6786
lwrist 25.2395
lhand -37.3984 33.409
lfingers 7.12502
lthumb -10.4589 63.1289
rfemur -37.9095 4.26702 24.3756
rtibia 70.8894
rfoot -26.9411 -17.5129
rtoes -28.3792
lfemur -34.0132 -8.13237 -25.4159
ltibia 68.5157
lfoot -34.2151 20.0109
ltoes -0.913261
437
root -8.7468 13.8269 5.12656 182.037 6.20612 -178.438
lowerback 26.5573 -0.0287612 11.3308
upperback 7.8708 6.31497 8.23679
thorax -5.81134 4.0722 0.638313
lowerneck -3.46118 9.45266 18.3121
upperneck -8.11778 10.6825 -27.5856
head 1.11989 4.75295 -11.479
rclavicle 7.95139e-015 -3.18055e-014
rhumerus 14.4772 46.7361 -62.2895
rradius 65.1641
rwrist -26.0215
rhand -19.467 5.59909
rfingers 7.12502
rthumb 6.85432 -24.27
lclavicle 7.95139e-015 -3.18055e-014
lhumerus -61.314 -6.24331 86.9101
lradius 89.2144
lwrist 24.1259
lhand -37.5371 33.3507
lfingers 7.12502
lthumb -10.5927 63.0637
rfemur -34.9816 3.66087 22.3422
rtibia 66.0943
rfoot -24.5932 -16.5057
rtoes -30.2506
lfemur -31.3509 -7.77528 -27.0572
ltibia 63.7652
lfoot -31.5872 19.7712
ltoes 1.9759
438
root -9.11688 14.1468 5.09041 181.729 5.37245 -178.81
lowerback 25.4254 -0.144347 12.1117
upperback 7.63969 6.28017 8.73431
thorax -5.49781 4.08131 0.828989
lowerneck -4.13532 9.21821 17.8234
upperneck -6.85305 10.5041 -27.4347
head 1.49686 4.60731 -11.3028
rclavicle 1.59028e-015 -3.49861e-014
rhumerus 17.8253 48.5642 -55.8938
rradius 66.723
rwrist -27.1567
rhand -17.4674 6.17515
rfingers 7.12502
rthumb 8.78431 -23.622
lclavicle 1.59028e-015 -3.49861e-014
lhumerus -63.5904 -7.38718 85.5798
lradius 92.147
lwrist 26.3366
lhand -35.7258 33.2844
lfingers 7.12502
lthumb -8.84525 63.079
rfemur -31.8298 2.91816 19.8538
rtibia 60.8735
rfoot -21.6091 -15.6738
rtoes -31.6698
lfemur -28.3398 -7.48531 -29.0595
ltibia 58.3704
lfoot -27.1491 19.206
ltoes 1.50078
439
root -9.49672 14.5521 5.04601 181.49 4.24239 -179.733
lowerback 24.1021 -0.172407 12.7718
upperback 7.35912 6.17465 8.90171
thorax -5.10561 4.03277 0.752577
lowerneck -4.86305 8.80726 17.5749
upperneck -5.67074 10.0416 -27.4392
head 1.82565 4.30797 -11.2676
rclavicle -3.49861e-014 -7.31528e-014
rhumerus 19.5447 47.8668 -52.958
rradius 66.2835
rwrist -26.1801
rhand -15.4431 4.68438
rfingers 7.12502
rthumb 10.7373 -25.0212
lclavicle -3.49861e-014 -7.31528e-014
lhumerus -66.1534 -9.1763 84.4012
lradius 95.0283
lwrist 29.4663
lhand -35.6197 31.6147
lfingers 7.12502
lthumb -8.74281 61.4137
rfemur -28.1692 2.63818 16.8156
rtibia 55.0102
rfoot -18.4551 -14.8362
rtoes -29.4413
lfemur -25.3626 -6.67257 -31.3038
ltibia 52.5797
lfoot -20.8476 16.6663
ltoes 2.2618
440
root -9.87676 14.9927 5.00066 181.271 3.08304 -180.995
lowerback 22.696 -0.0785622 13.0085
upperback 7.20523 6.06077 8.98921
thorax -4.5525 3.98953 0.827866
lowerneck -5.87159 8.33636 16.8089
upperneck -4.52377 9.47239 -26.96
head 2.10382 3.94351 -10.9667
rclavicle 7.31528e-014 6.67916e-014
rhumerus 20.0066 46.0995 -51.3665
rradius 65.2721
rwrist -24.3595
rhand -12.4987 6.41461
rfingers 7.12502
rthumb 13.5764 -23.1227
lclavicle 7.31528e-014 6.67916e-014
lhumerus -68.6822 -10.9704 83.4715
lradius 97.653
lwrist 31.362
lhand -35.7179 29.4209
lfingers 7.12502
lthumb -8.83756 59.2159
rfemur -24.573 3.00909 13.5899
rtibia 49.2969
rfoot -14.7121 -15.0724
rtoes -25.1535
lfemur -22.591 -4.69586 -33.5229
ltibia 46.779
lfoot -11.8973 12.7859
ltoes -2.47664
441
root -10.2516 15.4577 4.95484 181.061 2.0295 -182.415
lowerback 21.3461 0.23756 13.2506
upperback 7.12485 6.16684 8.8124
thorax -3.88687 4.04435 0.564088
lowerneck -6.87551 7.92503 16.0493
upperneck -3.41655 8.99608 -26.7226
head 2.42003 3.61555 -10.7543
rclavicle -4.6118e-014 -2.54444e-014
rhumerus 20.512 48.4553 -42.2037
rradius 69.6122
rwrist -27.9448
rhand -15.4393 5.79879
rfingers 7.12502
rthumb 10.741 -23.9066
lclavicle -4.6118e-014 -2.54444e-014
lhumerus -70.9516 -13.3431 82.6711
lradius 99.757
lwrist 30.4818
lhand -34.86 26.2645
lfingers 7.12502
lthumb -8.00965 56.0927
rfemur -21.3741 5.33951 10.5915
rtibia 44.0527
rfoot -9.91894 -18.9437
rtoes -23.4263
lfemur -19.9852 -2.54275 -35.3897
ltibia 41.1362
lfoot -3.86542 8.41439
ltoes 2.56468
442
root -10.6143 15.8874 4.91431 180.863 1.13582 -183.761
lowerback 20.43 0.588029 12.8542
upperback 6.77103 6.25401 8.69128
thorax -3.8117 4.02405 0.667683
lowerneck -6.84997 7.28751 15.2592
upperneck -2.79525 8.25595 -26.1464
head 2.34242 3.26236 -10.4708
rclavicle -2.54444e-014 8.26944e-014
rhumerus 18.9025 48.3887 -39.9023
rradius 70.0384
rwrist -28.0269
rhand -15.6361 5.30001
rfingers 7.12502
rthumb 10.5512 -24.4151
lclavicle -2.54444e-014 8.26944e-014
lhumerus -73.9692 -15.3118 82.0875
lradius 101.236
lwrist 27.2364
lhand -36.3413 22.83
lfingers 7.12502
lthumb -9.43909 52.5986
rfemur -18.8504 11.6197 8.16375
rtibia 40.1877
rfoot -7.0626 -27.1519
rtoes -17.8713
lfemur -17.3785 -1.52782 -36.3404
ltibia 36.132
lfoot 0.594473 6.07792
ltoes 1.69519
443
root -10.9724 16.2888 4.88322 181.112 0.441826 -184.557
lowerback 19.0171 0.84197 12.3479
upperback 6.60245 6.13017 8.67563
thorax -3.30686 3.9444 1.0343
lowerneck -7.60294 7.14864 13.8947
upperneck -1.44774 8.3393 -25.0693
head 2.72776 3.2535 -9.80321
rclavicle 1.59028e-015 4.13472e-014
rhumerus 18.5454 48.8163 -36.8278
rradius 70.2119
rwrist -28.7859
rhand -15.5617 5.22714
rfingers 7.12502
rthumb 10.623 -24.4843
lclavicle 1.59028e-015 4.13472e-014
lhumerus -76.5497 -15.7931 80.9798
lradius 102.375
lwrist 25.4603
lhand -38.4845 20.1345
lfingers 7.12502
lthumb -11.5065 49.7987
rfemur -17.5339 18.8096 7.25564
rtibia 37.7469
rfoot -19.8498 -36.2407
rtoes 3.89109
lfemur -15.655 -2.71674 -36.1792
ltibia 32.2752
lfoot 1.04742 2.42089
ltoes -15.0291
444
root -11.3319 16.6328 4.88288 181.852 0.0062253 -185.778
lowerback 17.8344 3.77179 12.0176
upperback 5.72349 5.69353 8.27951
thorax -3.31378 2.04676 1.04965
lowerneck -8.186 6.75186 13.4586
upperneck -0.356081 7.97914 -24.0298
head 2.97489 3.06647 -9.37938
rclavicle -2.38542e-014 -5.08889e-014
rhumerus 16.9105 49.2288 -35.1175
rradius 70.083
rwrist -29.4162
rhand -14.3499 3.72651
rfingers 7.12502
rthumb 11.7917 -25.9215
lclavicle -2.38542e-014 -5.08889e-014
lhumerus -79.2475 -16.1538 79.3968
lradius 102.945
lwrist 24.1451
lhand -39.7873 18.2927
lfingers 7.12502
lthumb -12.7628 47.8826
rfemur -17.2725 17.3941 6.87034
rtibia 36.9552
rfoot -28.6693 -37.8586
rtoes 13.3849
lfemur -15.1856 -5.99397 -36.3967
ltibia 29.9381
lfoot 1.08927 -0.491782
ltoes -3.36171
445
root -11.6887 16.9408 4.91369 181.971 -0.375573 -185.161
lowerback 17.2013 3.64935 12.2274
upperback 5.68612 5.4889 8.14535
thorax -2.9938 1.97862 0.860038
lowerneck -8.14565 6.59441 12.8215
upperneck -0.541133 7.76966 -23.1928
head 2.79523 3.00718 -8.99034
rclavicle -3.18055e-015 6.36111e-015
rhumerus 15.7151 49.1979 -34.2045
rradius 69.6782
rwrist -28.2717
rhand -14.1821 4.84643
rfingers 7.12502
rthumb 11.9536 -24.7923
lclavicle -3.18055e-015 6.36111e-015
lhumerus -81.4624 -14.9702 77.3693
lradius 102.341
lwrist 23.7727
lhand -40.7832 14.9007
lfingers 7.12502
lthumb -13.7227 44.4282
rfemur -17.2079 14.4927 9.06709
rtibia 37.2482
rfoot -24.3174 -38.6251
rtoes 10.6073
lfemur -14.7133 -10.0547 -34.6544
ltibia 29.2183
lfoot 0.391377 1.19134
ltoes -1.01686
